<?xml version="1.0" encoding="UTF-8" standalone="no"?>
<svg
   version="1.1"
   width="1416.75pt"
   height="641.25pt"
   viewBox="-263.1702541169666 -61.81516783578053 1416.75 641.25"
   preserveAspectRatio="none"
   id="svg1696"
   sodipodi:docname="ResultsModel.svg"
   inkscape:version="1.2 (dc2aedaf03, 2022-05-15)"
   xmlns:inkscape="http://www.inkscape.org/namespaces/inkscape"
   xmlns:sodipodi="http://sodipodi.sourceforge.net/DTD/sodipodi-0.dtd"
   xmlns="http://www.w3.org/2000/svg"
   xmlns:svg="http://www.w3.org/2000/svg">
  <sodipodi:namedview
     id="namedview1698"
     pagecolor="#ffffff"
     bordercolor="#cccccc"
     borderopacity="1"
     inkscape:showpageshadow="0"
     inkscape:pageopacity="1"
     inkscape:pagecheckerboard="0"
     inkscape:deskcolor="#d1d1d1"
     inkscape:document-units="pt"
     showgrid="false"
     inkscape:zoom="0.45293764"
     inkscape:cx="922.86434"
     inkscape:cy="479.09465"
     inkscape:window-width="1920"
     inkscape:window-height="1009"
     inkscape:window-x="-8"
     inkscape:window-y="-8"
     inkscape:window-maximized="1"
     inkscape:current-layer="svg1696" />
  <defs
     id="defs1442">
    <linearGradient
       id="Gradient0"
       x1="0.00"
       y1="0.00"
       x2="0.71"
       y2="0.71">
      <stop
         offset="5%"
         stop-color="#FFFFFF"
         stop-opacity="1"
         id="stop1427" />
      <stop
         offset="95%"
         stop-color="#C6CEDA"
         stop-opacity="1"
         id="stop1429" />
    </linearGradient>
    <linearGradient
       id="Gradient1"
       x1="0.00"
       y1="0.00"
       x2="0.71"
       y2="0.71">
      <stop
         offset="5%"
         stop-color="#FFFFFF"
         stop-opacity="1"
         id="stop1432" />
      <stop
         offset="95%"
         stop-color="#C6CEDA"
         stop-opacity="1"
         id="stop1434" />
    </linearGradient>
    <linearGradient
       id="Gradient2"
       x1="0.00"
       y1="0.00"
       x2="0.71"
       y2="0.71">
      <stop
         offset="5%"
         stop-color="#FFFFFF"
         stop-opacity="1"
         id="stop1437" />
      <stop
         offset="95%"
         stop-color="#C6CEDA"
         stop-opacity="1"
         id="stop1439" />
    </linearGradient>
  </defs>
  <path
     d="M332.8192443847656,239.02207946777344 L426.4916687011719,238.64132690429688 "
     stroke="#6E6E6E"
     fill="none"
     stroke-width="1"
     stroke-opacity="1"
     id="path1444" />
  <path
     d="M432.191650390625,238.6181640625 L426.500732421875,240.86131286621094 L426.482666015625,236.4213409423828 L432.191650390625,238.6181640625 "
     stroke="none"
     fill="#6E6E6E"
     fill-rule="evenodd"
     stroke-width="0"
     fill-opacity="1"
     id="path1446" />
  <path
     d="M432.191650390625,238.6181640625 L426.500732421875,240.86131286621094 L426.482666015625,236.4213409423828 L432.191650390625,238.6181640625 "
     stroke="#6E6E6E"
     fill="none"
     stroke-width="1"
     stroke-opacity="1"
     id="path1448" />
  <path
     d="M391.00909423828125,442.8255615234375 L458.2601623535156,267.4889221191406 "
     stroke="#6E6E6E"
     fill="none"
     stroke-width="1"
     stroke-opacity="1"
     id="path1450" />
  <path
     d="M460.3014221191406,262.1669616699219 L460.3329162597656,268.283935546875 L456.1873779296875,266.69390869140625 L460.3014221191406,262.1669616699219 "
     stroke="none"
     fill="#6E6E6E"
     fill-rule="evenodd"
     stroke-width="0"
     fill-opacity="1"
     id="path1452" />
  <path
     d="M460.3014221191406,262.1669616699219 L460.3329162597656,268.283935546875 L456.1873779296875,266.69390869140625 L460.3014221191406,262.1669616699219 "
     stroke="#6E6E6E"
     fill="none"
     stroke-width="1"
     stroke-opacity="1"
     id="path1454" />
  <path
     d="M73.44375610351562,67.5 L338.08123779296875,67.5 L338.0812072753906,67.5 C340.15228271484375,67.49999237060547 341.8312072753906,69.17892456054688 341.8312072753906,71.24999237060547 C341.8312072753906,71.24999237060547 341.8312072753906,71.25 341.8312072753906,71.25 L341.83123779296875,71.25 L341.83123779296875,395.5107116699219 L341.8312072753906,395.51068115234375 C341.8312072753906,397.5817565917969 340.15228271484375,399.26068115234375 338.08123779296875,399.26068115234375 L338.08123779296875,399.2607116699219 L73.44375610351562,399.2607116699219 L73.44375610351562,399.26068115234375 C71.37268829345703,399.2607116699219 69.69375610351562,397.5817565917969 69.69375610351562,395.5107116699219 L69.69375610351562,71.25 L69.6937484741211,71.25 C69.6937484741211,69.1789321899414 71.3726806640625,67.5 73.4437484741211,67.49999237060547 "
     stroke="none"
     fill="none"
     fill-rule="evenodd"
     stroke-width="0"
     fill-opacity="0"
     id="path1456" />
  <path
     d="M69.69375610351562,67.5 L341.83123779296875,67.5 L341.83123779296875,81.67322540283203 L69.69375610351562,81.67322540283203  z"
     stroke="none"
     fill="#F2E279"
     fill-rule="evenodd"
     stroke-width="0"
     fill-opacity="1"
     id="path1458" />
  <text
     x="120.33733367919922"
     y="14.745537757873535"
     dx="0"
     dy="0"
     font-family="Arial"
     font-size="8.999999731779106pt"
     fill="#000000"
     style="text-anchor:start"
     id="text1460"
     transform="matrix(0.750000 0.000000 0.000000 0.750000 69.69375610351562 67.5)">Multiplies Rasters</text>
  <path
     d="M69.69375610351562,81.67322540283203 L341.83123779296875,81.67322540283203 "
     stroke="#F2E279"
     fill="none"
     stroke-width="5"
     stroke-opacity="1"
     id="path1462" />
  <path
     d="M73.44375610351562,67.5 L338.08123779296875,67.5 L338.0812072753906,67.5 C340.15228271484375,67.49999237060547 341.8312072753906,69.17892456054688 341.8312072753906,71.24999237060547 C341.8312072753906,71.24999237060547 341.8312072753906,71.25 341.8312072753906,71.25 L341.83123779296875,71.25 L341.83123779296875,395.5107116699219 L341.8312072753906,395.51068115234375 C341.8312072753906,397.5817565917969 340.15228271484375,399.26068115234375 338.08123779296875,399.26068115234375 L338.08123779296875,399.2607116699219 L73.44375610351562,399.2607116699219 L73.44375610351562,399.26068115234375 C71.37268829345703,399.2607116699219 69.69375610351562,397.5817565917969 69.69375610351562,395.5107116699219 L69.69375610351562,71.25 L69.6937484741211,71.25 C69.6937484741211,69.1789321899414 71.3726806640625,67.5 73.4437484741211,67.49999237060547 "
     stroke="#F2E279"
     fill="none"
     stroke-width="5"
     stroke-opacity="1"
     id="path1464" />
  <path
     d="M338.99658203125,74.58660888671875 C338.99658203125,76.93490600585938 337.0928955078125,78.83857727050781 334.7445983886719,78.83857727050781 C332.39630126953125,78.83857727050781 330.49261474609375,76.93490600585938 330.49261474609375,74.58660888671875 C330.49261474609375,72.23831176757812 332.39630126953125,70.33464050292969 334.7445983886719,70.33464050292969 C337.0928955078125,70.33464050292969 338.99658203125,72.23831176757812 338.99658203125,74.58660888671875 "
     stroke="none"
     fill="url(#Gradient0)"
     fill-rule="evenodd"
     stroke-width="0"
     fill-opacity="1"
     id="path1466" />
  <path
     d="M338.99658203125,74.58660888671875 C338.99658203125,76.93490600585938 337.0928955078125,78.83857727050781 334.7445983886719,78.83857727050781 C332.39630126953125,78.83857727050781 330.49261474609375,76.93490600585938 330.49261474609375,74.58660888671875 C330.49261474609375,72.23831176757812 332.39630126953125,70.33464050292969 334.7445983886719,70.33464050292969 C337.0928955078125,70.33464050292969 338.99658203125,72.23831176757812 338.99658203125,74.58660888671875 "
     stroke="#808080"
     fill="none"
     stroke-width="1"
     stroke-opacity="1"
     id="path1468" />
  <path
     d="M334.7445983886719,73.73621368408203 L333.0438232421875,75.43700408935547 "
     stroke="#000000"
     fill="none"
     stroke-width="1"
     stroke-opacity="1"
     id="path1470" />
  <path
     d="M334.7445983886719,73.73621368408203 L336.4454040527344,75.43700408935547 "
     stroke="#000000"
     fill="none"
     stroke-width="1"
     stroke-opacity="1"
     id="path1472" />
  <path
     d="M334.7445983886719,75.23621368408203 L334.5438232421875,75.43700408935547 "
     stroke="#000000"
     fill="none"
     stroke-width="1"
     stroke-opacity="1"
     id="path1474" />
  <path
     d="M334.7445983886719,75.23621368408203 L334.9454040527344,75.43700408935547 "
     stroke="#000000"
     fill="none"
     stroke-width="1"
     stroke-opacity="1"
     id="path1476" />
  <path
     d="M132.2435302734375,135.8883514404297 L185.93446350097656,210.83946228027344 "
     stroke="#6E6E6E"
     fill="none"
     stroke-width="1"
     stroke-opacity="1"
     id="path1478" />
  <path
     d="M189.25384521484375,215.4732208251953 L184.12974548339844,212.13226318359375 L187.73919677734375,209.54664611816406 L189.25384521484375,215.4732208251953 "
     stroke="none"
     fill="#6E6E6E"
     fill-rule="evenodd"
     stroke-width="0"
     fill-opacity="1"
     id="path1480" />
  <path
     d="M189.25384521484375,215.4732208251953 L184.12974548339844,212.13226318359375 L187.73919677734375,209.54664611816406 L189.25384521484375,215.4732208251953 "
     stroke="#6E6E6E"
     fill="none"
     stroke-width="1"
     stroke-opacity="1"
     id="path1482" />
  <path
     d="M141.82667541503906,194.21969604492188 L168.99343872070312,213.18173217773438 "
     stroke="#6E6E6E"
     fill="none"
     stroke-width="1"
     stroke-opacity="1"
     id="path1484" />
  <path
     d="M173.66748046875,216.4441375732422 L167.7228240966797,215.00213623046875 L170.26406860351562,211.36131286621094 L173.66748046875,216.4441375732422 "
     stroke="none"
     fill="#6E6E6E"
     fill-rule="evenodd"
     stroke-width="0"
     fill-opacity="1"
     id="path1486" />
  <path
     d="M173.66748046875,216.4441375732422 L167.7228240966797,215.00213623046875 L170.26406860351562,211.36131286621094 L173.66748046875,216.4441375732422 "
     stroke="#6E6E6E"
     fill="none"
     stroke-width="1"
     stroke-opacity="1"
     id="path1488" />
  <path
     d="M154.03125,239.17323303222656 L163.3312530517578,239.17323303222656 "
     stroke="#6E6E6E"
     fill="none"
     stroke-width="1"
     stroke-opacity="1"
     id="path1490" />
  <path
     d="M169.03125,239.17320251464844 L163.33123779296875,241.39320373535156 L163.33123779296875,236.95321655273438 L169.03125,239.17320251464844 "
     stroke="none"
     fill="#6E6E6E"
     fill-rule="evenodd"
     stroke-width="0"
     fill-opacity="1"
     id="path1492" />
  <path
     d="M169.03125,239.17320251464844 L163.33123779296875,241.39320373535156 L163.33123779296875,236.95321655273438 L169.03125,239.17320251464844 "
     stroke="#6E6E6E"
     fill="none"
     stroke-width="1"
     stroke-opacity="1"
     id="path1494" />
  <path
     d="M141.82667541503906,284.12677001953125 L168.99343872070312,265.1647033691406 "
     stroke="#6E6E6E"
     fill="none"
     stroke-width="1"
     stroke-opacity="1"
     id="path1496" />
  <path
     d="M173.66749572753906,261.90228271484375 L170.2640838623047,266.9851379394531 L167.7228240966797,263.34429931640625 L173.66749572753906,261.90228271484375 "
     stroke="none"
     fill="#6E6E6E"
     fill-rule="evenodd"
     stroke-width="0"
     fill-opacity="1"
     id="path1498" />
  <path
     d="M173.66749572753906,261.90228271484375 L170.2640838623047,266.9851379394531 L167.7228240966797,263.34429931640625 L173.66749572753906,261.90228271484375 "
     stroke="#6E6E6E"
     fill="none"
     stroke-width="1"
     stroke-opacity="1"
     id="path1500" />
  <path
     d="M243.4312286376953,239.17323303222656 L252.73123168945312,239.17323303222656 "
     stroke="#6E6E6E"
     fill="none"
     stroke-width="1"
     stroke-opacity="1"
     id="path1502" />
  <path
     d="M258.4312438964844,239.17320251464844 L252.73123168945312,241.39320373535156 L252.73123168945312,236.95321655273438 L258.4312438964844,239.17320251464844 "
     stroke="none"
     fill="#6E6E6E"
     fill-rule="evenodd"
     stroke-width="0"
     fill-opacity="1"
     id="path1504" />
  <path
     d="M258.4312438964844,239.17320251464844 L252.73123168945312,241.39320373535156 L252.73123168945312,236.95321655273438 L258.4312438964844,239.17320251464844 "
     stroke="#6E6E6E"
     fill="none"
     stroke-width="1"
     stroke-opacity="1"
     id="path1506" />
  <path
     d="M131.18177795410156,345.0026550292969 L186.1270294189453,267.52276611328125 "
     stroke="#6E6E6E"
     fill="none"
     stroke-width="1"
     stroke-opacity="1"
     id="path1508" />
  <path
     d="M189.4242706298828,262.87322998046875 L187.93789672851562,268.80694580078125 L184.316162109375,266.2385559082031 L189.4242706298828,262.87322998046875 "
     stroke="none"
     fill="#6E6E6E"
     fill-rule="evenodd"
     stroke-width="0"
     fill-opacity="1"
     id="path1510" />
  <path
     d="M189.4242706298828,262.87322998046875 L187.93789672851562,268.80694580078125 L184.316162109375,266.2385559082031 L189.4242706298828,262.87322998046875 "
     stroke="#6E6E6E"
     fill="none"
     stroke-width="1"
     stroke-opacity="1"
     id="path1512" />
  <path
     d="M177.53518676757812,215.47323608398438 L234.92730712890625,215.47323608398438 L234.9272918701172,215.47323608398438 C239.62387084960938,215.4732208251953 243.4312286376953,219.2805633544922 243.4312286376953,223.97715759277344 C243.4312286376953,223.97715759277344 243.4312286376953,223.9771728515625 243.4312286376953,223.9771728515625 L243.43124389648438,223.9771728515625 L243.43124389648438,254.36929321289062 L243.4312286376953,254.36929321289062 C243.4312286376953,259.0658874511719 239.6239013671875,262.87322998046875 234.92730712890625,262.87322998046875 L234.92730712890625,262.87322998046875 L177.53518676757812,262.87322998046875 L177.53518676757812,262.87322998046875 C172.83859252929688,262.87322998046875 169.03125,259.0658874511719 169.03125,254.36929321289062 L169.03125,223.9771728515625 L169.03123474121094,223.9771728515625 C169.03123474121094,219.28057861328125 172.8385772705078,215.47323608398438 177.53517150878906,215.4732208251953 "
     stroke="none"
     fill="#F2E279"
     fill-rule="evenodd"
     stroke-width="0"
     fill-opacity="1"
     id="path1514" />
  <text
     x="28.3028564453125"
     y="29.996719360351562"
     dx="0"
     dy="0"
     font-family="Arial"
     font-size="8.999999731779106pt"
     fill="#000000"
     style="text-anchor:start"
     id="text1516"
     transform="matrix(0.750000 0.000000 0.000000 0.750000 169.03125 215.47323608398438)">Raster </text>
  <text
     x="18.96285629272461"
     y="43.79671859741211"
     dx="0"
     dy="0"
     font-family="Arial"
     font-size="8.999999731779106pt"
     fill="#000000"
     style="text-anchor:start"
     id="text1518"
     transform="matrix(0.750000 0.000000 0.000000 0.750000 169.03125 215.47323608398438)">Calculator</text>
  <path
     d="M177.53518676757812,215.47323608398438 L234.92730712890625,215.47323608398438 L234.9272918701172,215.47323608398438 C239.62387084960938,215.4732208251953 243.4312286376953,219.2805633544922 243.4312286376953,223.97715759277344 C243.4312286376953,223.97715759277344 243.4312286376953,223.9771728515625 243.4312286376953,223.9771728515625 L243.43124389648438,223.9771728515625 L243.43124389648438,254.36929321289062 L243.4312286376953,254.36929321289062 C243.4312286376953,259.0658874511719 239.6239013671875,262.87322998046875 234.92730712890625,262.87322998046875 L234.92730712890625,262.87322998046875 L177.53518676757812,262.87322998046875 L177.53518676757812,262.87322998046875 C172.83859252929688,262.87322998046875 169.03125,259.0658874511719 169.03125,254.36929321289062 L169.03125,223.9771728515625 L169.03123474121094,223.9771728515625 C169.03123474121094,219.28057861328125 172.8385772705078,215.47323608398438 177.53517150878906,215.4732208251953 "
     stroke="none"
     fill="none"
     stroke-width="0.75"
     stroke-opacity="0"
     id="path1520" />
  <path
     d="M332.8312072753906,239.1732177734375 C332.8312072753906,252.2623748779297 316.17620849609375,262.87322998046875 295.6312561035156,262.87322998046875 C275.08624267578125,262.87322998046875 258.4312438964844,252.26239013671875 258.43121337890625,239.17324829101562 L258.43121337890625,239.17324829101562 C258.43121337890625,226.08409118652344 275.0862121582031,215.47323608398438 295.6311950683594,215.47323608398438 C316.1761779785156,215.4732208251953 332.8312072753906,226.0840606689453 332.8312072753906,239.17323303222656 C332.8312072753906,239.17323303222656 332.8312072753906,239.17323303222656 332.8312072753906,239.17323303222656 "
     stroke="none"
     fill="#83CC7C"
     fill-rule="evenodd"
     stroke-width="0"
     fill-opacity="1"
     id="path1522" />
  <text
     x="14.28018856048584"
     y="36.89672088623047"
     dx="0"
     dy="0"
     font-family="Arial"
     font-size="8.999999731779106pt"
     fill="#000000"
     style="text-anchor:start"
     id="text1524"
     transform="matrix(0.750000 0.000000 0.000000 0.750000 258.4312438964844 215.47323608398438)">final_general</text>
  <path
     d="M332.8312072753906,239.1732177734375 C332.8312072753906,252.2623748779297 316.17620849609375,262.87322998046875 295.6312561035156,262.87322998046875 C275.08624267578125,262.87322998046875 258.4312438964844,252.26239013671875 258.43121337890625,239.17324829101562 L258.43121337890625,239.17324829101562 C258.43121337890625,226.08409118652344 275.0862121582031,215.47323608398438 295.6311950683594,215.47323608398438 C316.1761779785156,215.4732208251953 332.8312072753906,226.0840606689453 332.8312072753906,239.17323303222656 C332.8312072753906,239.17323303222656 332.8312072753906,239.17323303222656 332.8312072753906,239.17323303222656 "
     stroke="none"
     fill="none"
     stroke-width="0.75"
     stroke-opacity="0"
     id="path1526" />
  <path
     d="M154.03123474121094,114.37321472167969 C154.03123474121094,127.46236419677734 137.37623596191406,138.07321166992188 116.83126831054688,138.07321166992188 C96.2862777709961,138.07322692871094 79.63126373291016,127.4623794555664 79.6312484741211,114.37323760986328 L79.6312484741211,114.37323760986328 C79.63123321533203,101.28408813476562 96.28622436523438,90.67323303222656 116.83121490478516,90.67322540283203 C137.37620544433594,90.67321014404297 154.03121948242188,101.2840576171875 154.03123474121094,114.37322235107422 C154.03123474121094,114.37322235107422 154.03123474121094,114.37322235107422 154.03123474121094,114.37322235107422 "
     stroke="none"
     fill="#70AECC"
     fill-rule="evenodd"
     stroke-width="0"
     fill-opacity="1"
     id="path1528" />
  <text
     x="29.299522399902344"
     y="36.89672088623047"
     dx="0"
     dy="0"
     font-family="Arial"
     font-size="8.999999731779106pt"
     fill="#000000"
     style="text-anchor:start"
     id="text1530"
     transform="matrix(0.750000 0.000000 0.000000 0.750000 79.63125610351562 90.67322540283203)">Power</text>
  <path
     d="M154.03123474121094,114.37321472167969 C154.03123474121094,127.46236419677734 137.37623596191406,138.07321166992188 116.83126831054688,138.07321166992188 C96.2862777709961,138.07322692871094 79.63126373291016,127.4623794555664 79.6312484741211,114.37323760986328 L79.6312484741211,114.37323760986328 C79.63123321533203,101.28408813476562 96.28622436523438,90.67323303222656 116.83121490478516,90.67322540283203 C137.37620544433594,90.67321014404297 154.03121948242188,101.2840576171875 154.03123474121094,114.37322235107422 C154.03123474121094,114.37322235107422 154.03123474121094,114.37322235107422 154.03123474121094,114.37322235107422 "
     stroke="none"
     fill="none"
     stroke-width="0.75"
     stroke-opacity="0"
     id="path1532" />
  <path
     d="M154.03123474121094,176.77320861816406 C154.03123474121094,189.86236572265625 137.37623596191406,200.4732208251953 116.83126831054688,200.4732208251953 C96.2862777709961,200.4732208251953 79.63126373291016,189.8623809814453 79.6312484741211,176.7732391357422 L79.6312484741211,176.7732391357422 C79.63123321533203,163.68408203125 96.28622436523438,153.07322692871094 116.83121490478516,153.07322692871094 C137.37620544433594,153.07321166992188 154.03121948242188,163.68405151367188 154.03123474121094,176.77322387695312 C154.03123474121094,176.77322387695312 154.03123474121094,176.77322387695312 154.03123474121094,176.77322387695312 "
     stroke="none"
     fill="#70AECC"
     fill-rule="evenodd"
     stroke-width="0"
     fill-opacity="1"
     id="path1534" />
  <text
     x="0.6161890029907227"
     y="36.89672088623047"
     dx="0"
     dy="0"
     font-family="Arial"
     font-size="8.999999731779106pt"
     fill="#000000"
     style="text-anchor:start"
     id="text1536"
     transform="matrix(0.750000 0.000000 0.000000 0.750000 79.63125610351562 153.07322692871094)">Ecological Zones</text>
  <path
     d="M154.03123474121094,176.77320861816406 C154.03123474121094,189.86236572265625 137.37623596191406,200.4732208251953 116.83126831054688,200.4732208251953 C96.2862777709961,200.4732208251953 79.63126373291016,189.8623809814453 79.6312484741211,176.7732391357422 L79.6312484741211,176.7732391357422 C79.63123321533203,163.68408203125 96.28622436523438,153.07322692871094 116.83121490478516,153.07322692871094 C137.37620544433594,153.07321166992188 154.03121948242188,163.68405151367188 154.03123474121094,176.77322387695312 C154.03123474121094,176.77322387695312 154.03123474121094,176.77322387695312 154.03123474121094,176.77322387695312 "
     stroke="none"
     fill="none"
     stroke-width="0.75"
     stroke-opacity="0"
     id="path1538" />
  <path
     d="M154.03123474121094,239.17320251464844 C154.03123474121094,252.26235961914062 137.37623596191406,262.8731994628906 116.83126831054688,262.8731994628906 C96.2862777709961,262.8731994628906 79.63126373291016,252.2623748779297 79.6312484741211,239.17323303222656 L79.6312484741211,239.17323303222656 C79.63123321533203,226.08407592773438 96.28622436523438,215.4732208251953 116.83121490478516,215.4732208251953 C137.37620544433594,215.47320556640625 154.03121948242188,226.08404541015625 154.03123474121094,239.1732177734375 C154.03123474121094,239.1732177734375 154.03123474121094,239.1732177734375 154.03123474121094,239.1732177734375 "
     stroke="none"
     fill="#70AECC"
     fill-rule="evenodd"
     stroke-width="0"
     fill-opacity="1"
     id="path1540" />
  <text
     x="27.966190338134766"
     y="36.89672088623047"
     dx="0"
     dy="0"
     font-family="Arial"
     font-size="8.999999731779106pt"
     fill="#000000"
     style="text-anchor:start"
     id="text1542"
     transform="matrix(0.750000 0.000000 0.000000 0.750000 79.63125610351562 215.4732208251953)">Aspect</text>
  <path
     d="M154.03123474121094,239.17320251464844 C154.03123474121094,252.26235961914062 137.37623596191406,262.8731994628906 116.83126831054688,262.8731994628906 C96.2862777709961,262.8731994628906 79.63126373291016,252.2623748779297 79.6312484741211,239.17323303222656 L79.6312484741211,239.17323303222656 C79.63123321533203,226.08407592773438 96.28622436523438,215.4732208251953 116.83121490478516,215.4732208251953 C137.37620544433594,215.47320556640625 154.03121948242188,226.08404541015625 154.03123474121094,239.1732177734375 C154.03123474121094,239.1732177734375 154.03123474121094,239.1732177734375 154.03123474121094,239.1732177734375 "
     stroke="none"
     fill="none"
     stroke-width="0.75"
     stroke-opacity="0"
     id="path1544" />
  <path
     d="M154.03123474121094,301.5732116699219 C154.03123474121094,314.662353515625 137.376220703125,325.2732238769531 116.83126068115234,325.2732238769531 C96.28627014160156,325.2732238769531 79.63125610351562,314.6623840332031 79.63124084472656,301.5732421875 L79.63124084472656,301.5732421875 C79.6312255859375,288.48406982421875 96.28621673583984,277.87322998046875 116.83120727539062,277.87322998046875 C137.37619018554688,277.8731994628906 154.0312042236328,288.4840393066406 154.03123474121094,301.5732116699219 C154.03123474121094,301.5732116699219 154.03123474121094,301.5732116699219 154.03123474121094,301.5732116699219 "
     stroke="none"
     fill="#70AECC"
     fill-rule="evenodd"
     stroke-width="0"
     fill-opacity="1"
     id="path1546" />
  <text
     x="4.630855560302734"
     y="29.996719360351562"
     dx="0"
     dy="0"
     font-family="Arial"
     font-size="8.999999731779106pt"
     fill="#000000"
     style="text-anchor:start"
     id="text1548"
     transform="matrix(0.750000 0.000000 0.000000 0.750000 79.6312484741211 277.87322998046875)">Wildlife Habitat </text>
  <text
     x="34.30952072143555"
     y="43.79671859741211"
     dx="0"
     dy="0"
     font-family="Arial"
     font-size="8.999999731779106pt"
     fill="#000000"
     style="text-anchor:start"
     id="text1550"
     transform="matrix(0.750000 0.000000 0.000000 0.750000 79.6312484741211 277.87322998046875)">Risk</text>
  <path
     d="M154.03123474121094,301.5732116699219 C154.03123474121094,314.662353515625 137.376220703125,325.2732238769531 116.83126068115234,325.2732238769531 C96.28627014160156,325.2732238769531 79.63125610351562,314.6623840332031 79.63124084472656,301.5732421875 L79.63124084472656,301.5732421875 C79.6312255859375,288.48406982421875 96.28621673583984,277.87322998046875 116.83120727539062,277.87322998046875 C137.37619018554688,277.8731994628906 154.0312042236328,288.4840393066406 154.03123474121094,301.5732116699219 C154.03123474121094,301.5732116699219 154.03123474121094,301.5732116699219 154.03123474121094,301.5732116699219 "
     stroke="none"
     fill="none"
     stroke-width="0.75"
     stroke-opacity="0"
     id="path1552" />
  <path
     d="M153.09373474121094,366.5606994628906 C153.09373474121094,379.64984130859375 136.43873596191406,390.2607116699219 115.89376831054688,390.2607116699219 C95.3487777709961,390.2607116699219 78.69376373291016,379.6498718261719 78.6937484741211,366.56072998046875 L78.6937484741211,366.56072998046875 C78.69373321533203,353.4715576171875 95.34872436523438,342.8607177734375 115.89371490478516,342.8607177734375 C136.43870544433594,342.8606872558594 153.09371948242188,353.4715270996094 153.09373474121094,366.5606994628906 C153.09373474121094,366.5606994628906 153.09373474121094,366.5606994628906 153.09373474121094,366.5606994628906 "
     stroke="none"
     fill="#70AECC"
     fill-rule="evenodd"
     stroke-width="0"
     fill-opacity="1"
     id="path1554" />
  <text
     x="5.282855987548828"
     y="36.89672088623047"
     dx="0"
     dy="0"
     font-family="Arial"
     font-size="8.999999731779106pt"
     fill="#000000"
     style="text-anchor:start"
     id="text1556"
     transform="matrix(0.750000 0.000000 0.000000 0.750000 78.69375610351562 342.8607177734375)">Solar Radiation</text>
  <path
     d="M153.09373474121094,366.5606994628906 C153.09373474121094,379.64984130859375 136.43873596191406,390.2607116699219 115.89376831054688,390.2607116699219 C95.3487777709961,390.2607116699219 78.69376373291016,379.6498718261719 78.6937484741211,366.56072998046875 L78.6937484741211,366.56072998046875 C78.69373321533203,353.4715576171875 95.34872436523438,342.8607177734375 115.89371490478516,342.8607177734375 C136.43870544433594,342.8606872558594 153.09371948242188,353.4715270996094 153.09373474121094,366.5606994628906 C153.09373474121094,366.5606994628906 153.09373474121094,366.5606994628906 153.09373474121094,366.5606994628906 "
     stroke="none"
     fill="none"
     stroke-width="0.75"
     stroke-opacity="0"
     id="path1558" />
  <path
     d="M72.51850128173828,15 L810.851806640625,15 L810.851806640625,52.5 L72.51850128173828,52.5 L72.51850128173828,15 "
     stroke="none"
     fill="none"
     fill-rule="evenodd"
     stroke-width="0"
     fill-opacity="0"
     id="path1560" />
  <text
     x="71.5308609008789"
     y="35.5951042175293"
     dx="0"
     dy="0"
     font-family="Arial"
     font-size="17.99999946355821pt"
     fill="#555555"
     style="text-anchor:start"
     font-weight="bold"
     id="text1562"
     transform="matrix(0.750000 0.000000 0.000000 0.750000 72.51850128173828 15)">Combines Raster Files and Buffer to Identify Ideal Solar Panel Locations</text>
  <path
     d="M72.51850128173828,15 L810.851806640625,15 L810.851806640625,52.5 L72.51850128173828,52.5 L72.51850128173828,15 "
     stroke="none"
     fill="none"
     stroke-width="0.75"
     stroke-opacity="0"
     id="path1564" />
  <path
     d="M426.941650390625,191.59375 L817.0166015625,191.59375 L817.0165405273438,191.59375 C819.087646484375,191.59373474121094 820.7665405273438,193.27267456054688 820.7665405273438,195.34373474121094 C820.7665405273438,195.34373474121094 820.7665405273438,195.34375 820.7665405273438,195.34375 L820.7666015625,195.34375 L820.7666015625,351.4169616699219 L820.7665405273438,351.4169616699219 C820.7665405273438,353.488037109375 819.087646484375,355.1669616699219 817.0166015625,355.1669616699219 L817.0166015625,355.1669616699219 L426.941650390625,355.1669616699219 L426.941650390625,355.1669616699219 C424.8705749511719,355.1669616699219 423.191650390625,353.488037109375 423.191650390625,351.4169616699219 L423.191650390625,195.34375 L423.1916198730469,195.34375 C423.1916198730469,193.27267456054688 424.8705749511719,191.59375 426.9416198730469,191.59373474121094 "
     stroke="none"
     fill="none"
     fill-rule="evenodd"
     stroke-width="0"
     fill-opacity="0"
     id="path1566" />
  <path
     d="M423.191650390625,191.59375 L820.7666015625,191.59375 L820.7666015625,205.7669677734375 L423.191650390625,205.7669677734375  z"
     stroke="none"
     fill="#F2E279"
     fill-rule="evenodd"
     stroke-width="0"
     fill-opacity="1"
     id="path1568" />
  <text
     x="154.71665954589844"
     y="14.745537757873535"
     dx="0"
     dy="0"
     font-family="Arial"
     font-size="8.999999731779106pt"
     fill="#000000"
     style="text-anchor:start"
     id="text1570"
     transform="matrix(0.750000 0.000000 0.000000 0.750000 423.191650390625 191.59375)">Clips Raster to Buffer, Sets Cell Size</text>
  <path
     d="M423.191650390625,205.7669677734375 L820.7666015625,205.7669677734375 "
     stroke="#F2E279"
     fill="none"
     stroke-width="5"
     stroke-opacity="1"
     id="path1572" />
  <path
     d="M426.941650390625,191.59375 L817.0166015625,191.59375 L817.0165405273438,191.59375 C819.087646484375,191.59373474121094 820.7665405273438,193.27267456054688 820.7665405273438,195.34373474121094 C820.7665405273438,195.34373474121094 820.7665405273438,195.34375 820.7665405273438,195.34375 L820.7666015625,195.34375 L820.7666015625,351.4169616699219 L820.7665405273438,351.4169616699219 C820.7665405273438,353.488037109375 819.087646484375,355.1669616699219 817.0166015625,355.1669616699219 L817.0166015625,355.1669616699219 L426.941650390625,355.1669616699219 L426.941650390625,355.1669616699219 C424.8705749511719,355.1669616699219 423.191650390625,353.488037109375 423.191650390625,351.4169616699219 L423.191650390625,195.34375 L423.1916198730469,195.34375 C423.1916198730469,193.27267456054688 424.8705749511719,191.59375 426.9416198730469,191.59373474121094 "
     stroke="#F2E279"
     fill="none"
     stroke-width="5"
     stroke-opacity="1"
     id="path1574" />
  <path
     d="M817.931884765625,198.68035888671875 C817.931884765625,201.02865600585938 816.0282592773438,202.9323272705078 813.6799926757812,202.9323272705078 C811.3316650390625,202.9323272705078 809.427978515625,201.02865600585938 809.427978515625,198.68035888671875 C809.427978515625,196.33206176757812 811.3316650390625,194.4283905029297 813.6799926757812,194.4283905029297 C816.0282592773438,194.4283905029297 817.931884765625,196.33206176757812 817.931884765625,198.68035888671875 "
     stroke="none"
     fill="url(#Gradient1)"
     fill-rule="evenodd"
     stroke-width="0"
     fill-opacity="1"
     id="path1576" />
  <path
     d="M817.931884765625,198.68035888671875 C817.931884765625,201.02865600585938 816.0282592773438,202.9323272705078 813.6799926757812,202.9323272705078 C811.3316650390625,202.9323272705078 809.427978515625,201.02865600585938 809.427978515625,198.68035888671875 C809.427978515625,196.33206176757812 811.3316650390625,194.4283905029297 813.6799926757812,194.4283905029297 C816.0282592773438,194.4283905029297 817.931884765625,196.33206176757812 817.931884765625,198.68035888671875 "
     stroke="#808080"
     fill="none"
     stroke-width="1"
     stroke-opacity="1"
     id="path1578" />
  <path
     d="M813.6799926757812,197.8299560546875 L811.9791870117188,199.53074645996094 "
     stroke="#000000"
     fill="none"
     stroke-width="1"
     stroke-opacity="1"
     id="path1580" />
  <path
     d="M813.6799926757812,197.8299560546875 L815.3807983398438,199.53074645996094 "
     stroke="#000000"
     fill="none"
     stroke-width="1"
     stroke-opacity="1"
     id="path1582" />
  <path
     d="M813.6799926757812,199.3299560546875 L813.4791870117188,199.53074645996094 "
     stroke="#000000"
     fill="none"
     stroke-width="1"
     stroke-opacity="1"
     id="path1584" />
  <path
     d="M813.6799926757812,199.3299560546875 L813.8807983398438,199.53074645996094 "
     stroke="#000000"
     fill="none"
     stroke-width="1"
     stroke-opacity="1"
     id="path1586" />
  <path
     d="M506.59161376953125,238.4669647216797 L515.8916625976562,238.4669647216797 "
     stroke="#6E6E6E"
     fill="none"
     stroke-width="1"
     stroke-opacity="1"
     id="path1588" />
  <path
     d="M521.5917358398438,238.4669647216797 L515.8917236328125,240.6869659423828 L515.8917236328125,236.24697875976562 L521.5917358398438,238.4669647216797 "
     stroke="none"
     fill="#6E6E6E"
     fill-rule="evenodd"
     stroke-width="0"
     fill-opacity="1"
     id="path1590" />
  <path
     d="M521.5917358398438,238.4669647216797 L515.8917236328125,240.6869659423828 L515.8917236328125,236.24697875976562 L521.5917358398438,238.4669647216797 "
     stroke="#6E6E6E"
     fill="none"
     stroke-width="1"
     stroke-opacity="1"
     id="path1592" />
  <path
     d="M595.9916381835938,238.4669647216797 L605.2916259765625,238.4669647216797 "
     stroke="#6E6E6E"
     fill="none"
     stroke-width="1"
     stroke-opacity="1"
     id="path1594" />
  <path
     d="M610.99169921875,238.4669647216797 L605.2916870117188,240.6869659423828 L605.2916870117188,236.24697875976562 L610.99169921875,238.4669647216797 "
     stroke="none"
     fill="#6E6E6E"
     fill-rule="evenodd"
     stroke-width="0"
     fill-opacity="1"
     id="path1596" />
  <path
     d="M610.99169921875,238.4669647216797 L605.2916870117188,240.6869659423828 L605.2916870117188,236.24697875976562 L610.99169921875,238.4669647216797 "
     stroke="#6E6E6E"
     fill="none"
     stroke-width="1"
     stroke-opacity="1"
     id="path1598" />
  <path
     d="M685.3916015625,238.4669647216797 L694.6915893554688,238.4669647216797 "
     stroke="#6E6E6E"
     fill="none"
     stroke-width="1"
     stroke-opacity="1"
     id="path1600" />
  <path
     d="M700.3916625976562,238.4669647216797 L694.691650390625,240.6869659423828 L694.691650390625,236.24697875976562 L700.3916625976562,238.4669647216797 "
     stroke="none"
     fill="#6E6E6E"
     fill-rule="evenodd"
     stroke-width="0"
     fill-opacity="1"
     id="path1602" />
  <path
     d="M700.3916625976562,238.4669647216797 L694.691650390625,240.6869659423828 L694.691650390625,236.24697875976562 L700.3916625976562,238.4669647216797 "
     stroke="#6E6E6E"
     fill="none"
     stroke-width="1"
     stroke-opacity="1"
     id="path1604" />
  <path
     d="M647.6531372070312,298.7805480957031 L647.9291381835938,267.8667297363281 "
     stroke="#6E6E6E"
     fill="none"
     stroke-width="1"
     stroke-opacity="1"
     id="path1606" />
  <path
     d="M647.9800415039062,262.1669616699219 L650.1490478515625,267.8865661621094 L645.709228515625,267.846923828125 L647.9800415039062,262.1669616699219 "
     stroke="none"
     fill="#6E6E6E"
     fill-rule="evenodd"
     stroke-width="0"
     fill-opacity="1"
     id="path1608" />
  <path
     d="M647.9800415039062,262.1669616699219 L650.1490478515625,267.8865661621094 L645.709228515625,267.846923828125 L647.9800415039062,262.1669616699219 "
     stroke="#6E6E6E"
     fill="none"
     stroke-width="1"
     stroke-opacity="1"
     id="path1610" />
  <path
     d="M684.6416625976562,322.4669494628906 C684.6416625976562,335.55609130859375 667.9866333007812,346.1669616699219 647.4417114257812,346.1669616699219 C626.8966674804688,346.1669616699219 610.24169921875,335.5561218261719 610.2416381835938,322.46697998046875 L610.2416381835938,322.46697998046875 C610.2416381835938,309.3778076171875 626.8966674804688,298.7669677734375 647.441650390625,298.7669677734375 C667.9866333007812,298.7669372558594 684.6416625976562,309.3777770996094 684.6416625976562,322.4669494628906 C684.6416625976562,322.4669494628906 684.6416625976562,322.4669494628906 684.6416625976562,322.4669494628906 "
     stroke="none"
     fill="#52C0CC"
     fill-rule="evenodd"
     stroke-width="0"
     fill-opacity="1"
     id="path1612" />
  <text
     x="2.286855697631836"
     y="36.89672088623047"
     dx="0"
     dy="0"
     font-family="Arial"
     font-size="8.999999731779106pt"
     fill="#000000"
     style="text-anchor:start"
     id="text1614"
     transform="matrix(0.750000 0.000000 0.000000 0.750000 610.24169921875 298.7669677734375)">Output Cell Size</text>
  <path
     d="M684.6416625976562,322.4669494628906 C684.6416625976562,335.55609130859375 667.9866333007812,346.1669616699219 647.4417114257812,346.1669616699219 C626.8966674804688,346.1669616699219 610.24169921875,335.5561218261719 610.2416381835938,322.46697998046875 L610.2416381835938,322.46697998046875 C610.2416381835938,309.3778076171875 626.8966674804688,298.7669677734375 647.441650390625,298.7669677734375 C667.9866333007812,298.7669372558594 684.6416625976562,309.3777770996094 684.6416625976562,322.4669494628906 C684.6416625976562,322.4669494628906 684.6416625976562,322.4669494628906 684.6416625976562,322.4669494628906 "
     stroke="none"
     fill="none"
     stroke-width="0.75"
     stroke-opacity="0"
     id="path1616" />
  <path
     d="M440.6955871582031,214.7669677734375 L498.08770751953125,214.7669677734375 L498.0876770019531,214.7669677734375 C502.7842712402344,214.76695251464844 506.59161376953125,218.5742950439453 506.59161376953125,223.27088928222656 C506.59161376953125,223.27088928222656 506.59161376953125,223.27090454101562 506.59161376953125,223.27090454101562 L506.5916442871094,223.27090454101562 L506.5916442871094,253.66302490234375 L506.59161376953125,253.66302490234375 C506.59161376953125,258.359619140625 502.7843017578125,262.1669616699219 498.08770751953125,262.1669616699219 L498.08770751953125,262.1669616699219 L440.6955871582031,262.1669616699219 L440.6955871582031,262.1669616699219 C435.9989929199219,262.1669616699219 432.191650390625,258.359619140625 432.191650390625,253.66302490234375 L432.191650390625,223.27090454101562 L432.1916198730469,223.27090454101562 C432.1916198730469,218.57431030273438 435.99896240234375,214.7669677734375 440.695556640625,214.76695251464844 "
     stroke="none"
     fill="#F2E279"
     fill-rule="evenodd"
     stroke-width="0"
     fill-opacity="1"
     id="path1618" />
  <text
     x="16.3028564453125"
     y="36.89672088623047"
     dx="0"
     dy="0"
     font-family="Arial"
     font-size="8.999999731779106pt"
     fill="#000000"
     style="text-anchor:start"
     id="text1620"
     transform="matrix(0.750000 0.000000 0.000000 0.750000 432.191650390625 214.7669677734375)">Clip Raster</text>
  <path
     d="M440.6955871582031,214.7669677734375 L498.08770751953125,214.7669677734375 L498.0876770019531,214.7669677734375 C502.7842712402344,214.76695251464844 506.59161376953125,218.5742950439453 506.59161376953125,223.27088928222656 C506.59161376953125,223.27088928222656 506.59161376953125,223.27090454101562 506.59161376953125,223.27090454101562 L506.5916442871094,223.27090454101562 L506.5916442871094,253.66302490234375 L506.59161376953125,253.66302490234375 C506.59161376953125,258.359619140625 502.7843017578125,262.1669616699219 498.08770751953125,262.1669616699219 L498.08770751953125,262.1669616699219 L440.6955871582031,262.1669616699219 L440.6955871582031,262.1669616699219 C435.9989929199219,262.1669616699219 432.191650390625,258.359619140625 432.191650390625,253.66302490234375 L432.191650390625,223.27090454101562 L432.1916198730469,223.27090454101562 C432.1916198730469,218.57431030273438 435.99896240234375,214.7669677734375 440.695556640625,214.76695251464844 "
     stroke="none"
     fill="none"
     stroke-width="0.75"
     stroke-opacity="0"
     id="path1622" />
  <path
     d="M595.99169921875,238.46694946289062 C595.99169921875,251.5561065673828 579.336669921875,262.1669616699219 558.791748046875,262.1669616699219 C538.2467041015625,262.1669616699219 521.5917358398438,251.55612182617188 521.5916748046875,238.46697998046875 L521.5916748046875,238.46697998046875 C521.5916748046875,225.37782287597656 538.2467041015625,214.7669677734375 558.7916870117188,214.7669677734375 C579.336669921875,214.76695251464844 595.99169921875,225.37779235839844 595.99169921875,238.4669647216797 C595.99169921875,238.4669647216797 595.99169921875,238.4669647216797 595.99169921875,238.4669647216797 "
     stroke="none"
     fill="#83CC7C"
     fill-rule="evenodd"
     stroke-width="0"
     fill-opacity="1"
     id="path1624" />
  <text
     x="5.613522529602051"
     y="36.89672088623047"
     dx="0"
     dy="0"
     font-family="Arial"
     font-size="8.999999731779106pt"
     fill="#000000"
     style="text-anchor:start"
     id="text1626"
     transform="matrix(0.750000 0.000000 0.000000 0.750000 521.5917358398438 214.7669677734375)">final_powerlines</text>
  <path
     d="M595.99169921875,238.46694946289062 C595.99169921875,251.5561065673828 579.336669921875,262.1669616699219 558.791748046875,262.1669616699219 C538.2467041015625,262.1669616699219 521.5917358398438,251.55612182617188 521.5916748046875,238.46697998046875 L521.5916748046875,238.46697998046875 C521.5916748046875,225.37782287597656 538.2467041015625,214.7669677734375 558.7916870117188,214.7669677734375 C579.336669921875,214.76695251464844 595.99169921875,225.37779235839844 595.99169921875,238.4669647216797 C595.99169921875,238.4669647216797 595.99169921875,238.4669647216797 595.99169921875,238.4669647216797 "
     stroke="none"
     fill="none"
     stroke-width="0.75"
     stroke-opacity="0"
     id="path1628" />
  <path
     d="M619.49560546875,214.7669677734375 L676.8877563476562,214.7669677734375 L676.8876953125,214.7669677734375 C681.5842895507812,214.76695251464844 685.3916625976562,218.5742950439453 685.3916625976562,223.27088928222656 C685.3916625976562,223.27088928222656 685.3916625976562,223.27090454101562 685.3916625976562,223.27090454101562 L685.3916625976562,223.27090454101562 L685.3916625976562,253.66302490234375 L685.3916625976562,253.66302490234375 C685.3916625976562,258.359619140625 681.5843505859375,262.1669616699219 676.8877563476562,262.1669616699219 L676.8877563476562,262.1669616699219 L619.49560546875,262.1669616699219 L619.49560546875,262.1669616699219 C614.7990112304688,262.1669616699219 610.99169921875,258.359619140625 610.99169921875,253.66302490234375 L610.99169921875,223.27090454101562 L610.9916381835938,223.27090454101562 C610.9916381835938,218.57431030273438 614.7990112304688,214.7669677734375 619.49560546875,214.76695251464844 "
     stroke="none"
     fill="#F2E279"
     fill-rule="evenodd"
     stroke-width="0"
     fill-opacity="1"
     id="path1630" />
  <text
     x="18.96285629272461"
     y="36.89672088623047"
     dx="0"
     dy="0"
     font-family="Arial"
     font-size="8.999999731779106pt"
     fill="#000000"
     style="text-anchor:start"
     id="text1632"
     transform="matrix(0.750000 0.000000 0.000000 0.750000 610.99169921875 214.7669677734375)">Resample</text>
  <path
     d="M619.49560546875,214.7669677734375 L676.8877563476562,214.7669677734375 L676.8876953125,214.7669677734375 C681.5842895507812,214.76695251464844 685.3916625976562,218.5742950439453 685.3916625976562,223.27088928222656 C685.3916625976562,223.27088928222656 685.3916625976562,223.27090454101562 685.3916625976562,223.27090454101562 L685.3916625976562,223.27090454101562 L685.3916625976562,253.66302490234375 L685.3916625976562,253.66302490234375 C685.3916625976562,258.359619140625 681.5843505859375,262.1669616699219 676.8877563476562,262.1669616699219 L676.8877563476562,262.1669616699219 L619.49560546875,262.1669616699219 L619.49560546875,262.1669616699219 C614.7990112304688,262.1669616699219 610.99169921875,258.359619140625 610.99169921875,253.66302490234375 L610.99169921875,223.27090454101562 L610.9916381835938,223.27090454101562 C610.9916381835938,218.57431030273438 614.7990112304688,214.7669677734375 619.49560546875,214.76695251464844 "
     stroke="none"
     fill="none"
     stroke-width="0.75"
     stroke-opacity="0"
     id="path1634" />
  <path
     d="M811.7666015625,238.46694946289062 C811.7666015625,251.5561065673828 786.83447265625,262.1669616699219 756.0791625976562,262.1669616699219 C725.3237915039062,262.1669616699219 700.3916625976562,251.5561065673828 700.3916625976562,238.4669647216797 C700.3916625976562,238.4669647216797 700.3916625976562,238.4669647216797 700.3916625976562,238.4669647216797 L700.3916015625,238.46697998046875 C700.3916015625,225.37782287597656 725.32373046875,214.7669677734375 756.0791015625,214.7669677734375 C786.8344116210938,214.76695251464844 811.7666015625,225.37779235839844 811.7666015625,238.4669647216797 C811.7666015625,238.4669647216797 811.7666015625,238.4669647216797 811.7666015625,238.4669647216797 "
     stroke="none"
     fill="#83CC7C"
     fill-rule="evenodd"
     stroke-width="0"
     fill-opacity="1"
     id="path1636" />
  <text
     x="7.586855888366699"
     y="36.89672088623047"
     dx="0"
     dy="0"
     font-family="Arial"
     font-size="8.999999731779106pt"
     fill="#000000"
     style="text-anchor:start"
     id="text1638"
     transform="matrix(0.750000 0.000000 0.000000 0.750000 700.3916625976562 214.7669677734375)">final_powerlines_resized</text>
  <path
     d="M811.7666015625,238.46694946289062 C811.7666015625,251.5561065673828 786.83447265625,262.1669616699219 756.0791625976562,262.1669616699219 C725.3237915039062,262.1669616699219 700.3916625976562,251.5561065673828 700.3916625976562,238.4669647216797 C700.3916625976562,238.4669647216797 700.3916625976562,238.4669647216797 700.3916625976562,238.4669647216797 L700.3916015625,238.46697998046875 C700.3916015625,225.37782287597656 725.32373046875,214.7669677734375 756.0791015625,214.7669677734375 C786.8344116210938,214.76695251464844 811.7666015625,225.37779235839844 811.7666015625,238.4669647216797 C811.7666015625,238.4669647216797 811.7666015625,238.4669647216797 811.7666015625,238.4669647216797 "
     stroke="none"
     fill="none"
     stroke-width="0.75"
     stroke-opacity="0"
     id="path1640" />
  <path
     d="M73.39286041259766,418.54644775390625 L447.4178161621094,418.54644775390625 L447.4178161621094,418.54644775390625 C449.4888916015625,418.5464172363281 451.1678161621094,420.2253723144531 451.1678161621094,422.2964172363281 C451.1678161621094,422.2964172363281 451.1678161621094,422.29644775390625 451.1678161621094,422.29644775390625 L451.1678161621094,422.29644775390625 L451.1678161621094,495.1196594238281 L451.1678161621094,495.1196594238281 C451.1678161621094,497.19073486328125 449.4888916015625,498.8696594238281 447.4178161621094,498.8696594238281 L447.4178161621094,498.8696594238281 L73.39286041259766,498.8696594238281 L73.39286041259766,498.8696594238281 C71.32179260253906,498.8696594238281 69.64286041259766,497.19073486328125 69.64286041259766,495.1196594238281 L69.64286041259766,422.29644775390625 L69.64285278320312,422.29644775390625 C69.64285278320312,420.2253723144531 71.32178497314453,418.54644775390625 73.39285278320312,418.5464172363281 "
     stroke="none"
     fill="none"
     fill-rule="evenodd"
     stroke-width="0"
     fill-opacity="0"
     id="path1642" />
  <path
     d="M69.64286041259766,418.54644775390625 L451.1678161621094,418.54644775390625 L451.1678161621094,432.71966552734375 L69.64286041259766,432.71966552734375  z"
     stroke="none"
     fill="#F2E279"
     fill-rule="evenodd"
     stroke-width="0"
     fill-opacity="1"
     id="path1644" />
  <text
     x="202.7033233642578"
     y="14.745537757873535"
     dx="0"
     dy="0"
     font-family="Arial"
     font-size="8.999999731779106pt"
     fill="#000000"
     style="text-anchor:start"
     id="text1646"
     transform="matrix(0.750000 0.000000 0.000000 0.750000 69.64286041259766 418.54644775390625)">Creates Buffer</text>
  <path
     d="M69.64286041259766,432.71966552734375 L451.1678161621094,432.71966552734375 "
     stroke="#F2E279"
     fill="none"
     stroke-width="5"
     stroke-opacity="1"
     id="path1648" />
  <path
     d="M73.39286041259766,418.54644775390625 L447.4178161621094,418.54644775390625 L447.4178161621094,418.54644775390625 C449.4888916015625,418.5464172363281 451.1678161621094,420.2253723144531 451.1678161621094,422.2964172363281 C451.1678161621094,422.2964172363281 451.1678161621094,422.29644775390625 451.1678161621094,422.29644775390625 L451.1678161621094,422.29644775390625 L451.1678161621094,495.1196594238281 L451.1678161621094,495.1196594238281 C451.1678161621094,497.19073486328125 449.4888916015625,498.8696594238281 447.4178161621094,498.8696594238281 L447.4178161621094,498.8696594238281 L73.39286041259766,498.8696594238281 L73.39286041259766,498.8696594238281 C71.32179260253906,498.8696594238281 69.64286041259766,497.19073486328125 69.64286041259766,495.1196594238281 L69.64286041259766,422.29644775390625 L69.64285278320312,422.29644775390625 C69.64285278320312,420.2253723144531 71.32178497314453,418.54644775390625 73.39285278320312,418.5464172363281 "
     stroke="#F2E279"
     fill="none"
     stroke-width="5"
     stroke-opacity="1"
     id="path1650" />
  <path
     d="M448.3331604003906,425.633056640625 C448.3331604003906,427.9813537597656 446.42950439453125,429.885009765625 444.0812072753906,429.885009765625 C441.73291015625,429.885009765625 439.8292236328125,427.9813537597656 439.8292236328125,425.633056640625 C439.8292236328125,423.2847595214844 441.73291015625,421.3810729980469 444.0812072753906,421.3810729980469 C446.42950439453125,421.3810729980469 448.3331604003906,423.2847595214844 448.3331604003906,425.633056640625 "
     stroke="none"
     fill="url(#Gradient2)"
     fill-rule="evenodd"
     stroke-width="0"
     fill-opacity="1"
     id="path1652" />
  <path
     d="M448.3331604003906,425.633056640625 C448.3331604003906,427.9813537597656 446.42950439453125,429.885009765625 444.0812072753906,429.885009765625 C441.73291015625,429.885009765625 439.8292236328125,427.9813537597656 439.8292236328125,425.633056640625 C439.8292236328125,423.2847595214844 441.73291015625,421.3810729980469 444.0812072753906,421.3810729980469 C446.42950439453125,421.3810729980469 448.3331604003906,423.2847595214844 448.3331604003906,425.633056640625 "
     stroke="#808080"
     fill="none"
     stroke-width="1"
     stroke-opacity="1"
     id="path1654" />
  <path
     d="M444.0812072753906,424.78265380859375 L442.38043212890625,426.4834289550781 "
     stroke="#000000"
     fill="none"
     stroke-width="1"
     stroke-opacity="1"
     id="path1656" />
  <path
     d="M444.0812072753906,424.78265380859375 L445.7820129394531,426.4834289550781 "
     stroke="#000000"
     fill="none"
     stroke-width="1"
     stroke-opacity="1"
     id="path1658" />
  <path
     d="M444.0812072753906,426.28265380859375 L443.88043212890625,426.4834289550781 "
     stroke="#000000"
     fill="none"
     stroke-width="1"
     stroke-opacity="1"
     id="path1660" />
  <path
     d="M444.0812072753906,426.28265380859375 L444.2820129394531,426.4834289550781 "
     stroke="#000000"
     fill="none"
     stroke-width="1"
     stroke-opacity="1"
     id="path1662" />
  <path
     d="M153.0428466796875,465.419677734375 L190.84286499023438,465.419677734375 "
     stroke="#6E6E6E"
     fill="none"
     stroke-width="1"
     stroke-opacity="1"
     id="path1664" />
  <path
     d="M196.5428466796875,465.4196472167969 L190.8428497314453,467.6396484375 L190.8428497314453,463.1996765136719 L196.5428466796875,465.4196472167969 "
     stroke="none"
     fill="#6E6E6E"
     fill-rule="evenodd"
     stroke-width="0"
     fill-opacity="1"
     id="path1666" />
  <path
     d="M196.5428466796875,465.4196472167969 L190.8428497314453,467.6396484375 L190.8428497314453,463.1996765136719 L196.5428466796875,465.4196472167969 "
     stroke="#6E6E6E"
     fill="none"
     stroke-width="1"
     stroke-opacity="1"
     id="path1668" />
  <path
     d="M270.9428405761719,465.6078186035156 L316.2818298339844,465.8370666503906 "
     stroke="#6E6E6E"
     fill="none"
     stroke-width="1"
     stroke-opacity="1"
     id="path1670" />
  <path
     d="M321.9817199707031,465.8658752441406 L316.27056884765625,468.0570373535156 L316.29302978515625,463.6170959472656 L321.9817199707031,465.8658752441406 "
     stroke="none"
     fill="#6E6E6E"
     fill-rule="evenodd"
     stroke-width="0"
     fill-opacity="1"
     id="path1672" />
  <path
     d="M321.9817199707031,465.8658752441406 L316.27056884765625,468.0570373535156 L316.29302978515625,463.6170959472656 L321.9817199707031,465.8658752441406 "
     stroke="#6E6E6E"
     fill="none"
     stroke-width="1"
     stroke-opacity="1"
     id="path1674" />
  <path
     d="M153.0428466796875,465.419677734375 C153.0428466796875,478.5088195800781 136.38783264160156,489.11968994140625 115.8428726196289,489.11968994140625 C95.29788208007812,489.11968994140625 78.64286804199219,478.50885009765625 78.64285278320312,465.4197082519531 L78.64285278320312,465.4197082519531 C78.64283752441406,452.3305358886719 95.2978286743164,441.7196960449219 115.84281921386719,441.7196960449219 C136.38780212402344,441.71966552734375 153.04281616210938,452.33050537109375 153.0428466796875,465.419677734375 C153.0428466796875,465.419677734375 153.0428466796875,465.419677734375 153.0428466796875,465.419677734375 "
     stroke="none"
     fill="#70AECC"
     fill-rule="evenodd"
     stroke-width="0"
     fill-opacity="1"
     id="path1676" />
  <text
     x="11.410855293273926"
     y="29.996719360351562"
     dx="0"
     dy="0"
     font-family="Arial"
     font-size="8.999999731779106pt"
     fill="#000000"
     style="text-anchor:start"
     id="text1678"
     transform="matrix(0.750000 0.000000 0.000000 0.750000 78.64286041259766 441.7196960449219)">Transmission </text>
  <text
     x="32.62885665893555"
     y="43.79671859741211"
     dx="0"
     dy="0"
     font-family="Arial"
     font-size="8.999999731779106pt"
     fill="#000000"
     style="text-anchor:start"
     id="text1680"
     transform="matrix(0.750000 0.000000 0.000000 0.750000 78.64286041259766 441.7196960449219)">Lines</text>
  <path
     d="M153.0428466796875,465.419677734375 C153.0428466796875,478.5088195800781 136.38783264160156,489.11968994140625 115.8428726196289,489.11968994140625 C95.29788208007812,489.11968994140625 78.64286804199219,478.50885009765625 78.64285278320312,465.4197082519531 L78.64285278320312,465.4197082519531 C78.64283752441406,452.3305358886719 95.2978286743164,441.7196960449219 115.84281921386719,441.7196960449219 C136.38780212402344,441.71966552734375 153.04281616210938,452.33050537109375 153.0428466796875,465.419677734375 C153.0428466796875,465.419677734375 153.0428466796875,465.419677734375 153.0428466796875,465.419677734375 "
     stroke="none"
     fill="none"
     stroke-width="0.75"
     stroke-opacity="0"
     id="path1682" />
  <path
     d="M205.0467987060547,441.7196960449219 L262.43890380859375,441.7196960449219 L262.43890380859375,441.7196960449219 C267.1354675292969,441.71966552734375 270.9428405761719,445.5270080566406 270.9428405761719,450.2236022949219 C270.9428405761719,450.2236022949219 270.9428405761719,450.2236328125 270.9428405761719,450.2236328125 L270.9428405761719,450.2236328125 L270.9428405761719,480.6157531738281 L270.9428405761719,480.6157531738281 C270.9428405761719,485.3123474121094 267.135498046875,489.11968994140625 262.43890380859375,489.11968994140625 L262.43890380859375,489.11968994140625 L205.0467987060547,489.11968994140625 L205.0467987060547,489.11968994140625 C200.35020446777344,489.11968994140625 196.54286193847656,485.3123474121094 196.54286193847656,480.6157531738281 L196.54286193847656,450.2236328125 L196.5428466796875,450.2236328125 C196.5428466796875,445.52703857421875 200.35018920898438,441.7196960449219 205.04678344726562,441.71966552734375 "
     stroke="none"
     fill="#F2E279"
     fill-rule="evenodd"
     stroke-width="0"
     fill-opacity="1"
     id="path1684" />
  <text
     x="6.066189289093018"
     y="36.89672088623047"
     dx="0"
     dy="0"
     font-family="Arial"
     font-size="8.999999731779106pt"
     fill="#000000"
     style="text-anchor:start"
     id="text1686"
     transform="matrix(0.750000 0.000000 0.000000 0.750000 196.54286193847656 441.7196960449219)">Pairwise Buffer</text>
  <path
     d="M205.0467987060547,441.7196960449219 L262.43890380859375,441.7196960449219 L262.43890380859375,441.7196960449219 C267.1354675292969,441.71966552734375 270.9428405761719,445.5270080566406 270.9428405761719,450.2236022949219 C270.9428405761719,450.2236022949219 270.9428405761719,450.2236328125 270.9428405761719,450.2236328125 L270.9428405761719,450.2236328125 L270.9428405761719,480.6157531738281 L270.9428405761719,480.6157531738281 C270.9428405761719,485.3123474121094 267.135498046875,489.11968994140625 262.43890380859375,489.11968994140625 L262.43890380859375,489.11968994140625 L205.0467987060547,489.11968994140625 L205.0467987060547,489.11968994140625 C200.35020446777344,489.11968994140625 196.54286193847656,485.3123474121094 196.54286193847656,480.6157531738281 L196.54286193847656,450.2236328125 L196.5428466796875,450.2236328125 C196.5428466796875,445.52703857421875 200.35018920898438,441.7196960449219 205.04678344726562,441.71966552734375 "
     stroke="none"
     fill="none"
     stroke-width="0.75"
     stroke-opacity="0"
     id="path1688" />
  <path
     d="M442.1678161621094,466.169677734375 C442.1678161621094,479.2588195800781 415.2545166015625,489.86968994140625 382.05535888671875,489.86968994140625 C348.85614013671875,489.86968994140625 321.9428405761719,479.2588195800781 321.9428405761719,466.169677734375 C321.9428405761719,466.169677734375 321.9428405761719,466.169677734375 321.9428405761719,466.169677734375 L321.9428405761719,466.1697082519531 C321.94281005859375,453.0805358886719 348.8560485839844,442.4696960449219 382.0552673339844,442.4696960449219 C415.2544860839844,442.46966552734375 442.16778564453125,453.08050537109375 442.1678161621094,466.169677734375 C442.1678161621094,466.169677734375 442.1678161621094,466.169677734375 442.1678161621094,466.169677734375 "
     stroke="none"
     fill="#83CC7C"
     fill-rule="evenodd"
     stroke-width="0"
     fill-opacity="1"
     id="path1690" />
  <text
     x="4.490855693817139"
     y="36.89672088623047"
     dx="0"
     dy="0"
     font-family="Arial"
     font-size="8.999999731779106pt"
     fill="#000000"
     style="text-anchor:start"
     id="text1692"
     transform="matrix(0.750000 0.000000 0.000000 0.750000 321.9428405761719 442.4696960449219)">WithinRangeofPowerLines</text>
  <path
     d="M442.1678161621094,466.169677734375 C442.1678161621094,479.2588195800781 415.2545166015625,489.86968994140625 382.05535888671875,489.86968994140625 C348.85614013671875,489.86968994140625 321.9428405761719,479.2588195800781 321.9428405761719,466.169677734375 C321.9428405761719,466.169677734375 321.9428405761719,466.169677734375 321.9428405761719,466.169677734375 L321.9428405761719,466.1697082519531 C321.94281005859375,453.0805358886719 348.8560485839844,442.4696960449219 382.0552673339844,442.4696960449219 C415.2544860839844,442.46966552734375 442.16778564453125,453.08050537109375 442.1678161621094,466.169677734375 C442.1678161621094,466.169677734375 442.1678161621094,466.169677734375 442.1678161621094,466.169677734375 "
     stroke="none"
     fill="none"
     stroke-width="0.75"
     stroke-opacity="0"
     id="path1694" />
</svg>
